
<svg version="1.0" xmlns="http://www.w3.org/2000/svg"
 width="246.000000pt" height="295.000000pt" viewBox="0 0 246.000000 295.000000"
 preserveAspectRatio="xMidYMid meet">

<g transform="translate(0.000000,295.000000) scale(0.100000,-0.100000)"
fill="#000000" stroke="none">
<path d="M750 2834 c-14 -2 -65 -9 -115 -15 -164 -19 -444 -84 -537 -124 -35
-15 -14 -15 242 0 105 6 404 -11 530 -30 453 -68 803 -217 1015 -431 92 -93
144 -175 183 -289 25 -75 27 -91 26 -250 0 -143 -4 -183 -22 -250 -57 -207
-221 -455 -404 -613 -221 -191 -571 -367 -888 -447 -106 -27 -200 -43 -200
-35 0 5 27 66 61 137 34 70 101 211 149 313 48 102 126 264 173 360 47 96 115
238 151 315 36 77 69 141 74 143 5 1 69 -100 142 -225 220 -376 273 -463 281
-469 5 -3 52 37 105 88 l97 94 -78 135 c-43 74 -156 269 -253 434 -96 165
-200 343 -231 396 -95 163 -74 168 -171 -37 -47 -98 -119 -248 -161 -334 l-76
-155 28 -9 c18 -6 29 -16 29 -27 0 -15 -5 -17 -30 -13 -32 7 -34 3 -30 -45 1
-20 -2 -23 -23 -19 -24 5 -29 -3 -73 -96 -54 -115 -136 -287 -225 -474 -34
-70 -85 -176 -114 -237 -29 -60 -83 -173 -120 -250 -100 -208 -145 -306 -145
-316 0 -27 403 0 610 41 588 116 1134 462 1415 894 99 152 161 308 190 475 22
123 20 363 -4 476 -60 278 -235 511 -503 668 -246 144 -528 215 -888 222 -102
2 -196 2 -210 -1z m238 -1465 c4 -46 -18 -69 -64 -69 -28 0 -34 4 -34 21 0 16
5 20 19 16 30 -7 46 9 43 43 -3 26 0 31 15 28 13 -2 19 -14 21 -39z"/>
<path d="M1951 579 l-93 -89 97 -168 c54 -92 113 -191 131 -219 l34 -53 144 0
c80 0 147 4 150 8 2 4 -63 124 -146 267 -82 143 -161 279 -174 303 -14 23 -30
42 -37 42 -7 -1 -54 -41 -106 -91z"/>
</g>
</svg>
